<svg xmlns="http://www.w3.org/2000/svg" version="1.1" xmlnsxlink="http://www.w3.org/1999/xlink" xmlnssvgjs="http://svgjs.com/svgjs" width="512" height="512" x="0" y="0" viewBox="0 0 64 64" style="enable-background:new 0 0 512 512" xmlspace="preserve" class=""><g><path d="M57.994 13.886c-.018-.151-.196-1.502-1.115-2.422L46.536 1.122C45.617.203 44.266.024 44.114.007A.872.872 0 0 0 44 0H19c-2.757 0-5 2.243-5 5v3h-3c-2.757 0-5 2.243-5 5v46c0 2.757 2.243 5 5 5h34c2.757 0 5-2.243 5-5v-3h3c2.757 0 5-2.243 5-5V14c0-.038-.002-.076-.006-.114zm-2.53-1.008c.035.035.06.082.091.122H48c-1.654 0-3-1.346-3-3V2.444c.04.031.086.057.122.092zM48 59c0 1.654-1.346 3-3 3H11c-1.654 0-3-1.346-3-3V13c0-1.654 1.346-3 3-3h24v8c0 2.757 2.243 5 5 5h8zM37.122 10.536l10.343 10.343c.035.035.06.082.091.122H40c-1.654 0-3-1.346-3-3v-7.555c.04.03.086.054.122.09zM53 54h-3V22c0-.038-.002-.076-.006-.114-.018-.151-.196-1.502-1.115-2.422L38.536 9.122c-.919-.919-2.271-1.098-2.422-1.115A.872.872 0 0 0 36 8H16V5c0-1.654 1.346-3 3-3h24v8c0 2.757 2.243 5 5 5h8v36c0 1.654-1.346 3-3 3z" fill="#000000" data-original="#000000" class=""></path></g></svg>