<svg xmlns="http://www.w3.org/2000/svg" version="1.1" xmlnsxlink="http://www.w3.org/1999/xlink" xmlnssvgjs="http://svgjs.com/svgjs" width="512" height="512" x="0" y="0" viewBox="0 0 470.586 470.586" style="enable-background:new 0 0 512 512" xmlspace="preserve" class="">
    <g>
        <path 
            d="M327.081 0H90.234C74.334 0 61.38 12.959 61.38 28.859v412.863c0 15.924 12.953 28.863 28.854 28.863H380.35c15.917 0 28.855-12.939 28.855-28.863V89.234L327.081 0zm6.81 43.184 35.996 39.121h-35.996V43.184zm51.081 398.539c0 2.542-2.081 4.629-4.634 4.629H90.234c-2.551 0-4.62-2.087-4.62-4.629V28.859a4.617 4.617 0 0 1 4.62-4.613h219.41v70.181c0 6.682 5.444 12.099 12.129 12.099h63.198v335.197zM131.858 161.048l-25.29-99.674h18.371l11.688 49.795a816.55 816.55 0 0 1 4.592 20.516c1.555-6.682 3.425-13.774 5.272-20.723l13.122-49.583h16.863l11.969 49.929c1.552 6.517 3.094 13.243 4.395 19.742 1.339-5.784 2.823-11.718 4.348-17.83l.562-2.217 12.989-49.618h17.996l-28.248 99.673h-16.834l-12.395-51.173c-1.531-6.289-2.87-12.052-3.975-17.693-1.292 5.618-2.799 11.366-4.643 17.794l-13.964 51.072h-16.819v-.01zm110.749-21.185h108.448c5.013 0 9.079 4.069 9.079 9.079 0 5.012-4.066 9.079-9.079 9.079H242.607c-5.012 0-9.079-4.067-9.079-9.079.001-5.009 4.068-9.079 9.079-9.079zm117.528 69.703c0 5.012-4.066 9.079-9.079 9.079H125.338c-5.012 0-9.079-4.067-9.079-9.079a9.08 9.08 0 0 1 9.079-9.079h225.718c5.012 0 9.079 4.067 9.079 9.079zm0 53.717c0 5.012-4.066 9.079-9.079 9.079H125.338c-5.012 0-9.079-4.067-9.079-9.079a9.08 9.08 0 0 1 9.079-9.079h225.718c5.012 0 9.079 4.067 9.079 9.079zm0 53.717a9.08 9.08 0 0 1-9.079 9.079H125.338c-5.012 0-9.079-4.066-9.079-9.079 0-5.012 4.066-9.079 9.079-9.079h225.718c5.012 0 9.079 4.067 9.079 9.079zm0 54.474a9.08 9.08 0 0 1-9.079 9.079H125.338c-5.012 0-9.079-4.066-9.079-9.079s4.066-9.079 9.079-9.079h225.718c5.012 0 9.079 4.066 9.079 9.079z" 
            fill="#0091ff" 
            data-original="#000000" 
            class="">
        </path>
    </g>
</svg>